<svg width="38" height="37" viewBox="0 0 38 37" fill="none" xmlns="http://www.w3.org/2000/svg">
<path d="M19 0L19.3213 8.55521C19.5179 13.7893 23.7736 17.9869 29.0776 18.1782L38 18.5L29.0776 18.8218C23.7736 19.0131 19.5179 23.2107 19.3213 28.4448L19 37L18.6787 28.4448C18.4821 23.2107 14.2264 19.0131 8.92244 18.8218L0 18.5L8.92244 18.1782C14.2264 17.9869 18.4821 13.7893 18.6787 8.55522L19 0Z" fill="#4D4D4D"/>
<path d="M28.3733 2.47852L24.3169 10.0461C21.8353 14.6759 23.3941 20.411 27.8905 23.1938L35.4545 27.875L27.5644 23.7512C22.8741 21.2998 17.0617 22.8351 14.2396 27.271L9.62667 34.5215L13.6831 26.9539C16.1647 22.3241 14.6059 16.589 10.1095 13.8062L2.54552 9.12499L10.4356 13.2488C15.1259 15.7002 20.9383 14.1648 23.7604 9.72901L28.3733 2.47852Z" fill="#4D4D4D"/>
<path d="M35.2351 9.25L27.8879 13.8022C23.3929 16.5872 21.8371 22.3231 24.3212 26.9517L28.5 34.738L23.7564 27.2735C20.9365 22.8362 15.1249 21.298 10.4334 23.747L2.76491 27.75L10.1121 23.1978C14.6071 20.4128 16.1629 14.6769 13.6788 10.0483L9.5 2.26202L14.2436 9.7265C17.0635 14.1638 22.8751 15.702 27.5666 13.253L35.2351 9.25Z" fill="#4D4D4D"/>
</svg>
